<svg width="22" height="20" viewBox="0 0 22 20" fill="none" xmlns="http://www.w3.org/2000/svg">
<path d="M19.8807 2.59133C19.3676 2.08683 18.7583 1.68663 18.0878 1.41358C17.4172 1.14054 16.6985 1 15.9727 1C15.2468 1 14.5281 1.14054 13.8576 1.41358C13.187 1.68663 12.5778 2.08683 12.0646 2.59133L10.9997 3.63785L9.93482 2.59133C8.89834 1.57276 7.49258 1.00053 6.02679 1.00053C4.56099 1.00053 3.15523 1.57276 2.11876 2.59133C1.08229 3.6099 0.5 4.99139 0.5 6.43187C0.5 7.87235 1.08229 9.25383 2.11876 10.2724L3.18367 11.3189L10.9997 19L18.8158 11.3189L19.8807 10.2724C20.3941 9.76814 20.8013 9.16942 21.0791 8.51045C21.357 7.85148 21.5 7.14517 21.5 6.43187C21.5 5.71857 21.357 5.01225 21.0791 4.35328C20.8013 3.69431 20.3941 3.09559 19.8807 2.59133Z" stroke="currentColor" stroke-linecap="round" stroke-linejoin="round"/>
</svg>
