<svg width="99" height="98" viewBox="0 0 99 98" fill="none" xmlns="http://www.w3.org/2000/svg">
<path d="M49.0122 21.6119C49.9939 21.6119 50.79 20.8158 50.79 19.8341V10.7778C50.79 9.79611 49.9941 9 49.0122 9C48.0303 9 47.2344 9.79593 47.2344 10.7778V19.8341C47.2346 20.8158 48.0305 21.6119 49.0122 21.6119Z" fill="#CB2F1D"/>
<path d="M35.6475 24.5324C35.9855 25.0687 36.5627 25.3624 37.1532 25.3624C37.4771 25.3624 37.8051 25.2739 38.0993 25.0885C38.9299 24.5651 39.1788 23.4673 38.6554 22.6365L33.9186 15.1207C33.395 14.2901 32.2972 14.0411 31.4668 14.5646C30.6362 15.088 30.3873 16.1858 30.9107 17.0166L35.6475 24.5324Z" fill="#CB2F1D"/>
<path d="M59.9324 25.0891C60.2266 25.2742 60.5543 25.3625 60.8778 25.3625C61.4684 25.3625 62.0461 25.0685 62.384 24.5317L67.1159 17.016C67.6389 16.185 67.3895 15.0876 66.5585 14.5642C65.7272 14.0413 64.6301 14.2909 64.1069 15.1215L59.375 22.6373C58.852 23.4684 59.1016 24.5659 59.9324 25.0891Z" fill="#CB2F1D"/>
<path d="M93.9517 50.8548L90.8628 45.3977C90.3788 44.5429 89.294 44.2425 88.4401 44.7264C87.5855 45.2102 87.285 46.2948 87.7688 47.1491L90.8564 52.6038C91.011 52.8779 90.9708 53.1423 90.9332 53.2755C90.8969 53.4036 90.797 53.6403 90.5356 53.7846L85.775 56.4217C85.352 56.6553 84.8 56.5077 84.5694 56.101L83.36 53.9615C83.355 53.9519 83.3493 53.943 83.3441 53.9336L70.8407 31.8185C70.6862 31.5463 70.7253 31.2853 70.7623 31.1539C70.798 31.0268 70.8972 30.792 71.1585 30.6474L75.9249 28.0099C76.3532 27.7727 76.8917 27.9167 77.1258 28.3316L79.9124 33.255C80.3961 34.1096 81.4812 34.4099 82.3352 33.9265C83.1898 33.4429 83.4903 32.3581 83.0067 31.5036L80.2214 26.5824C79.0334 24.4764 76.3343 23.721 74.2041 24.8985L69.438 27.5361C68.4067 28.106 67.6616 29.0481 67.3401 30.1893C67.0368 31.2652 67.1453 32.3885 67.6418 33.3743L65.0163 34.1352C63.8979 34.4587 63.2191 34.6342 62.8424 34.6342C62.8408 34.6342 62.8394 34.6342 62.838 34.6342C62.5786 34.6333 62.2957 34.5343 61.4884 34.2285C61.1222 34.0899 60.6662 33.917 60.1056 33.7215L55.4539 32.0953C52.8812 31.1968 51.7208 31.2451 50.0397 31.3986L42.1078 32.1085C38.4918 32.4288 36.1865 33.2445 34.914 34.6591L30.3937 33.3494C30.8801 32.3678 30.9844 31.2555 30.684 30.1893C30.3625 29.0488 29.618 28.1069 28.5877 27.537L23.8242 24.8981C21.6922 23.7196 18.9915 24.4754 17.8034 26.5808L4.07788 50.8523C3.49031 51.8868 3.34488 53.09 3.6688 54.2405C3.99059 55.3829 4.7355 56.3259 5.76486 56.8951L10.5284 59.5336C11.2095 59.9101 11.9494 60.089 12.6795 60.089C14.2307 60.089 15.7387 59.282 16.5492 57.8511L17.0525 56.9607C18.426 57.5654 19.5793 58.4438 20.3653 59.4838C19.5976 60.3809 19.114 61.488 18.9784 62.6921C18.7992 64.2845 19.249 65.8468 20.2449 67.0922C21.2323 68.3269 22.6443 69.106 24.2232 69.2894C24.056 70.8683 24.5076 72.4154 25.4959 73.6469C26.5175 74.9241 27.9612 75.6692 29.4715 75.845C29.3051 77.4216 29.7551 78.9672 30.7403 80.1994C31.7272 81.4368 33.1395 82.2174 34.72 82.4009C34.5527 83.981 35.0043 85.529 35.9926 86.7607C37.1706 88.2334 38.9096 89.0002 40.6652 89C41.9758 89 43.2957 88.5726 44.3976 87.6926L48.12 84.7141C48.4157 84.4781 48.6843 84.2173 48.9259 83.9364L51.0522 85.635C52.1518 86.5125 53.4686 86.9388 54.7775 86.9386C56.534 86.9385 58.2759 86.1708 59.4555 84.6966C60.0772 83.9194 60.4708 83.0322 60.6486 82.1165C61.2703 82.3316 61.9266 82.4427 62.5958 82.4425C62.8202 82.4425 63.046 82.4301 63.2725 82.405C64.8654 82.2281 66.2898 81.4448 67.2795 80.2035C68.2696 78.9701 68.7211 77.4232 68.5542 75.8445C70.0634 75.6683 71.5079 74.9234 72.5325 73.6467C73.5529 72.3708 73.9625 70.7999 73.8022 69.2891C75.3802 69.1052 76.7914 68.3264 77.7765 67.0945C78.7732 65.8525 79.2249 64.2925 79.0484 62.7013C78.9143 61.4935 78.4304 60.3827 77.6613 59.4831C78.445 58.4434 79.5959 57.5639 80.9704 56.9597L81.4748 57.8518C82.2847 59.2822 83.792 60.0888 85.3435 60.0888C86.074 60.0886 86.8146 59.9098 87.4964 59.5329L92.2573 56.8957C93.2863 56.3268 94.0308 55.3852 94.3539 54.2447C94.6796 53.0954 94.5372 51.8921 93.9517 50.8548ZM13.4547 56.1001C13.2236 56.5083 12.6712 56.6555 12.25 56.4224L7.48669 53.7841C7.22659 53.6401 7.12739 53.4044 7.09112 53.2765C7.05396 53.1441 7.01432 52.8811 7.17112 52.6056L20.8988 28.3293C21.056 28.0507 21.3521 27.8947 21.6597 27.8947C21.8094 27.8947 21.9616 27.9315 22.102 28.0091L26.8641 30.6471C26.8647 30.6474 26.8652 30.6478 26.8657 30.648C27.1264 30.7922 27.2254 31.027 27.2613 31.1541C27.2983 31.2855 27.3374 31.5465 27.1811 31.8217L13.4547 56.1001ZM26.4282 65.2488C25.9269 65.6504 25.2938 65.8319 24.6468 65.7599C23.9995 65.6881 23.4226 65.3727 23.0219 64.8717C22.6203 64.3695 22.4393 63.7366 22.512 63.0898C22.5844 62.4457 22.8999 61.8716 23.4038 61.4707L30.0596 56.1504C31.1042 55.3164 32.6334 55.488 33.4682 56.5307C33.8697 57.0326 34.0508 57.6644 33.9783 58.3092C33.9061 58.9519 33.5904 59.5254 33.0894 59.924C33.0784 59.9327 33.0689 59.9425 33.0583 59.9516L26.4298 65.2475C26.4293 65.2479 26.4287 65.2484 26.4282 65.2488ZM28.2707 71.4239C27.8695 70.9238 27.6882 70.2935 27.7598 69.6493C27.8314 69.0044 28.1474 68.4277 28.6491 68.0254L28.6496 68.025C28.65 68.0249 28.6503 68.0245 28.6507 68.0243C28.6508 68.0243 28.6508 68.0242 28.651 68.024L38.2381 60.3644C39.2826 59.5302 40.8121 59.7005 41.6468 60.7447C42.0477 61.2458 42.2288 61.877 42.1572 62.5216C42.0854 63.1669 41.7686 63.7437 41.2656 64.1455L31.681 71.8022C30.6353 72.6367 29.1063 72.4684 28.2707 71.4239ZM35.1435 78.8712C34.4963 78.7994 33.92 78.4837 33.5187 77.9805C33.1178 77.4794 32.9367 76.8482 33.0083 76.2036C33.0801 75.5588 33.3964 74.9826 33.8986 74.5808C33.899 74.5804 33.8995 74.5801 33.8999 74.5797L40.5344 69.2797C40.5422 69.2736 40.5507 69.2685 40.5586 69.2622C41.6004 68.4283 43.1293 68.598 43.9649 69.6395C44.3665 70.1415 44.5477 70.7744 44.4749 71.4212C44.4024 72.0653 44.0868 72.6394 43.5832 73.0403L36.9275 78.3604C36.4246 78.7621 35.7908 78.9427 35.1435 78.8712ZM46.7915 80.3145C46.7195 80.9593 46.4035 81.5348 45.9004 81.9365L42.1778 84.9157C41.1319 85.7503 39.603 85.5823 38.7678 84.5377C38.3665 84.0379 38.185 83.4072 38.2566 82.7616C38.3283 82.1161 38.6438 81.5403 39.1447 81.1403C39.1452 81.1399 39.1459 81.1394 39.1464 81.139L42.8681 78.164C42.8701 78.1624 42.8722 78.1612 42.8742 78.1597C43.919 77.3259 45.4481 77.4968 46.283 78.54C46.6828 79.0403 46.8636 79.6702 46.7915 80.3145ZM75.0017 64.8715C74.601 65.3725 74.0239 65.6881 73.3767 65.7599C72.7302 65.8326 72.0967 65.6506 71.5954 65.2488C71.5952 65.2486 71.5948 65.2484 71.5945 65.2482C71.5943 65.2481 71.5939 65.2479 71.5938 65.2477L66.8366 61.4469C66.0693 60.8339 64.9507 60.9591 64.3381 61.726C63.7253 62.493 63.8503 63.6118 64.6172 64.2246L69.3727 68.0241C70.416 68.8596 70.5879 70.3856 69.7576 71.4237C68.9199 72.4677 67.3908 72.6374 66.3469 71.8013L61.1867 67.6835C60.4194 67.0712 59.3008 67.1969 58.6883 67.9642C58.076 68.7316 58.2016 69.8502 58.969 70.4626L64.1267 74.5785C64.6293 74.981 64.9456 75.5581 65.0174 76.2036C65.089 76.8479 64.9077 77.4783 64.5031 77.9823C64.1032 78.4836 63.5269 78.7992 62.8799 78.8712C62.2323 78.9425 61.5985 78.7617 61.0975 78.3619L58.5299 76.3085C58.5255 76.3049 58.5216 76.3012 58.5171 76.2976L56.3478 74.5634L55.9423 74.2391C55.1752 73.6257 54.0566 73.7504 53.4436 74.517C53.3669 74.613 53.3017 74.7143 53.248 74.8195C52.9906 75.3227 52.9948 75.9127 53.2364 76.4075C53.3483 76.6367 53.5093 76.8459 53.7216 77.0157L56.3032 79.0803C57.3395 79.9171 57.5089 81.438 56.6792 82.4754C55.8442 83.5192 54.3149 83.6897 53.2708 82.8567L50.3418 80.5168C50.4637 78.9951 50.0129 77.5112 49.0593 76.3188C48.4665 75.578 47.7314 75.0169 46.9241 74.6405C47.5157 73.8197 47.8914 72.8554 48.008 71.8186C48.1872 70.2263 47.7374 68.664 46.7397 67.4165C46.1468 66.6776 45.4126 66.1178 44.6069 65.7423C45.1996 64.919 45.5752 63.9527 45.6908 62.9145C45.8677 61.3258 45.4175 59.7665 44.4234 58.5233C42.7128 56.3845 39.8199 55.7344 37.4122 56.7563C37.2194 55.8713 36.8257 55.0364 36.2443 54.3095C34.1859 51.7373 30.4166 51.3165 27.8403 53.372L23.08 57.1771C22.0035 55.8034 20.5402 54.6641 18.81 53.8517L28.6021 36.5319L33.8158 38.0425C33.8396 38.3214 33.8848 38.6148 33.9603 38.9255C35.2224 44.1147 40.0001 46.5325 46.4293 45.237C51.8464 44.147 54.0765 45.7707 58.518 49.0051C58.9788 49.3406 59.4576 49.6892 59.9588 50.0482C63.153 52.3398 66.5664 55.0334 68.855 56.859L74.6259 61.4711C75.1272 61.8711 75.4428 62.4471 75.5144 63.0932C75.5861 63.7387 75.4047 64.3695 75.0017 64.8715ZM74.9464 57.176L71.0737 54.081C68.7535 52.2301 65.2919 49.4988 62.0305 47.1588C61.5362 46.8049 61.0649 46.4616 60.6112 46.1313C56.0056 42.7774 52.677 40.3542 45.7278 41.7518C43.6008 42.1804 38.5333 42.6816 37.4155 38.0862C37.258 37.4375 37.418 37.2146 37.4861 37.1194C37.7238 36.7881 38.6803 35.9815 42.4224 35.6501L50.3628 34.9395C51.6567 34.8214 52.3057 34.762 54.2806 35.4518L58.9328 37.0782C59.4499 37.2588 59.8635 37.4153 60.2285 37.5536C62.4685 38.4022 63.0621 38.402 66.005 37.5502L69.4348 36.5564L79.2137 53.8527C77.483 54.6647 76.0211 55.803 74.9464 57.176Z" fill="#CB2F1D"/>
<path d="M85.3833 41.1063C86.365 41.1063 87.1611 40.3077 87.1611 39.3258C87.1611 38.3439 86.365 37.548 85.3833 37.548C84.4016 37.548 83.6055 38.3441 83.6055 39.3258V39.3308C83.6055 40.3127 84.4016 41.1063 85.3833 41.1063Z" fill="#CB2F1D"/>
</svg>
